HIERARCHY
ROOT newVegas:Hips
{
	OFFSET 0.000000 96.479958 0.000000
	CHANNELS 6 Xposition Yposition Zposition Xrotation Yrotation Zrotation
	JOINT newVegas:Pelvis
	{
		OFFSET 0.000000 0.000000 0.000000
		CHANNELS 3 Xrotation Yrotation Zrotation
		JOINT newVegas:LeftUpLeg
		{
			OFFSET 18.735201 -5.666702 -4.541200
			CHANNELS 3 Xrotation Yrotation Zrotation
			JOINT newVegas:LeftLeg
			{
				OFFSET -0.021200 -31.938179 0.493100
				CHANNELS 3 Xrotation Yrotation Zrotation
				JOINT newVegas:LeftFoot
				{
					OFFSET 0.021200 -31.938179 -4.336299
					CHANNELS 3 Xrotation Yrotation Zrotation
					JOINT newVegas:LeftToeBase
					{
						OFFSET 0.943001 -26.722000 15.023500
						CHANNELS 3 Xrotation Yrotation Zrotation
						End Site
						{
							OFFSET 0.000000 30.670183 0.000000
						}
					}
				}
				JOINT newVegas:Left_PantLeg
				{
					OFFSET 0.663870 -9.044666 -1.108900
					CHANNELS 3 Xrotation Yrotation Zrotation
					End Site
					{
						OFFSET 1.415995 20.635357 0.000000
					}
				}
			}
		}
		JOINT newVegas:RightUpLeg
		{
			OFFSET -18.735201 -5.666702 -4.541200
			CHANNELS 3 Xrotation Yrotation Zrotation
			JOINT newVegas:RightLeg
			{
				OFFSET 0.018946 -31.938133 0.493100
				CHANNELS 3 Xrotation Yrotation Zrotation
				JOINT newVegas:RightFoot
				{
					OFFSET -0.018946 -31.938126 -4.336299
					CHANNELS 3 Xrotation Yrotation Zrotation
					JOINT newVegas:RightToeBase
					{
						OFFSET -0.943001 -26.722004 15.023500
						CHANNELS 3 Xrotation Yrotation Zrotation
						End Site
						{
							OFFSET 0.000000 30.670187 0.000000
						}
					}
				}
				JOINT newVegas:Right_PantLeg
				{
					OFFSET -0.661674 -9.044716 -1.108900
					CHANNELS 3 Xrotation Yrotation Zrotation
					End Site
					{
						OFFSET -1.415958 20.635269 0.000000
					}
				}
			}
		}
	}
	JOINT newVegas:Spine
	{
		OFFSET 0.000000 10.199997 -0.299500
		CHANNELS 3 Xrotation Yrotation Zrotation
		JOINT newVegas:Spine1
		{
			OFFSET 0.000000 11.900002 -1.516600
			CHANNELS 3 Xrotation Yrotation Zrotation
			JOINT newVegas:Spine2
			{
				OFFSET 0.000000 13.600006 -2.842500
				CHANNELS 3 Xrotation Yrotation Zrotation
				JOINT newVegas:Neck
				{
					OFFSET 0.000000 9.624100 -2.890100
					CHANNELS 3 Xrotation Yrotation Zrotation
					JOINT newVegas:Head
					{
						OFFSET 0.000000 14.068802 -1.351900
						CHANNELS 3 Xrotation Yrotation Zrotation
						JOINT newVegas:Hair_Back
						{
							OFFSET 0.000000 3.231903 -17.524799
							CHANNELS 3 Xrotation Yrotation Zrotation
							End Site
							{
								OFFSET 0.000000 19.849884 0.000000
							}
						}
						JOINT newVegas:Hair_Front
						{
							OFFSET 0.000000 31.260406 4.573800
							CHANNELS 3 Xrotation Yrotation Zrotation
							JOINT newVegas:Hair_Front1
							{
								OFFSET 0.000000 2.284103 11.993300
								CHANNELS 3 Xrotation Yrotation Zrotation
								JOINT newVegas:Hair_Front2
								{
									OFFSET 0.000000 2.284103 11.993300
									CHANNELS 3 Xrotation Yrotation Zrotation
									End Site
									{
										OFFSET 0.000000 12.208862 0.000000
									}
								}
							}
						}
						JOINT newVegas:Jowel
						{
							OFFSET 0.000000 -7.458206 6.864100
							CHANNELS 3 Xrotation Yrotation Zrotation
							End Site
							{
								OFFSET 0.000000 19.849884 0.000000
							}
						}
					}
				}
				JOINT newVegas:LeftShoulder
				{
					OFFSET 15.263000 10.923401 -0.547700
					CHANNELS 3 Xrotation Yrotation Zrotation
					JOINT newVegas:LeftArm
					{
						OFFSET 25.438599 -2.830597 -13.032500
						CHANNELS 3 Xrotation Yrotation Zrotation
						JOINT newVegas:LeftForeArm
						{
							OFFSET 29.960503 0.000000 0.000000
							CHANNELS 3 Xrotation Yrotation Zrotation
							JOINT newVegas:LeftHand
							{
								OFFSET 27.849251 0.000000 0.000000
								CHANNELS 3 Xrotation Yrotation Zrotation
								JOINT newVegas:LeftHandThumb1
								{
									OFFSET 4.487587 -3.305161 6.305391
									CHANNELS 3 Xrotation Yrotation Zrotation
									JOINT newVegas:LeftHandThumb2
									{
										OFFSET 5.480453 -3.164139 3.164143
										CHANNELS 3 Xrotation Yrotation Zrotation
										JOINT newVegas:LeftHandThumb3
										{
											OFFSET 5.159721 -2.978973 2.978967
											CHANNELS 3 Xrotation Yrotation Zrotation
											End Site
											{
												OFFSET 2.494507 5.926697 1.738678
											}
										}
									}
								}
								JOINT newVegas:LeftHandIndex1
								{
									OFFSET 18.578728 -0.527832 5.208049
									CHANNELS 3 Xrotation Yrotation Zrotation
									JOINT newVegas:LeftHandIndex2
									{
										OFFSET 3.192009 0.000000 0.000000
										CHANNELS 3 Xrotation Yrotation Zrotation
										JOINT newVegas:LeftHandIndex3
										{
											OFFSET 3.835129 0.000000 0.000000
											CHANNELS 3 Xrotation Yrotation Zrotation
											End Site
											{
												OFFSET -0.034599 3.816971 0.371180
											}
										}
									}
								}
								JOINT newVegas:LeftHandMiddle1
								{
									OFFSET 18.476105 0.000000 0.000000
									CHANNELS 3 Xrotation Yrotation Zrotation
									JOINT newVegas:LeftHandMiddle2
									{
										OFFSET 3.324875 0.000000 0.000000
										CHANNELS 3 Xrotation Yrotation Zrotation
										JOINT newVegas:LeftHandMiddle3
										{
											OFFSET 4.596550 0.000000 0.000000
											CHANNELS 3 Xrotation Yrotation Zrotation
											End Site
											{
												OFFSET 0.057701 4.578827 0.399218
											}
										}
									}
								}
								JOINT newVegas:LeftHandRing1
								{
									OFFSET 17.732719 0.121887 -4.201567
									CHANNELS 3 Xrotation Yrotation Zrotation
									JOINT newVegas:LeftHandRing2
									{
										OFFSET 2.733170 0.000000 0.000000
										CHANNELS 3 Xrotation Yrotation Zrotation
										JOINT newVegas:LeftHandRing3
										{
											OFFSET 3.178268 0.000000 0.000000
											CHANNELS 3 Xrotation Yrotation Zrotation
											End Site
											{
												OFFSET 0.119102 3.170624 0.185394
											}
										}
									}
								}
								JOINT newVegas:LeftHandPinky1
								{
									OFFSET 15.989624 -0.606689 -7.535461
									CHANNELS 3 Xrotation Yrotation Zrotation
									JOINT newVegas:LeftHandPinky2
									{
										OFFSET 2.538986 0.000000 0.000000
										CHANNELS 3 Xrotation Yrotation Zrotation
										JOINT newVegas:LeftHandPinky3
										{
											OFFSET 2.593102 0.000000 0.000000
											CHANNELS 3 Xrotation Yrotation Zrotation
											End Site
											{
												OFFSET -0.150902 2.584198 0.152708
											}
										}
									}
								}
							}
							JOINT newVegas:Left_Sleeve
							{
								OFFSET 0.267448 -0.649796 0.577675
								CHANNELS 3 Xrotation Yrotation Zrotation
								End Site
								{
									OFFSET 0.000000 15.991241 0.000000
								}
							}
							JOINT newVegas:Left_CapeC
							{
								OFFSET 15.715958 -8.608795 -6.935905
								CHANNELS 3 Xrotation Yrotation Zrotation
								JOINT newVegas:Left_CapeC1
								{
									OFFSET 0.000000 -8.688499 0.000000
									CHANNELS 3 Xrotation Yrotation Zrotation
									End Site
									{
										OFFSET 0.000000 8.688499 0.000000
									}
								}
							}
						}
						JOINT newVegas:Left_CapeB
						{
							OFFSET 26.118385 -8.608795 -7.079235
							CHANNELS 3 Xrotation Yrotation Zrotation
							JOINT newVegas:Left_CapeB1
							{
								OFFSET 0.000000 -8.688499 0.000000
								CHANNELS 3 Xrotation Yrotation Zrotation
								End Site
								{
									OFFSET 0.000000 8.688499 0.000000
								}
							}
						}
						JOINT newVegas:Left_CapeA
						{
							OFFSET 5.115639 -8.608795 -10.395809
							CHANNELS 3 Xrotation Yrotation Zrotation
							JOINT newVegas:Left_CapeA1
							{
								OFFSET 0.000000 -8.688499 0.000000
								CHANNELS 3 Xrotation Yrotation Zrotation
								End Site
								{
									OFFSET 0.000000 8.688499 0.000000
								}
							}
						}
					}
				}
				JOINT newVegas:RightShoulder
				{
					OFFSET -15.263000 10.923401 -0.547700
					CHANNELS 3 Xrotation Yrotation Zrotation
					JOINT newVegas:RightArm
					{
						OFFSET -25.438599 -2.830597 -13.032500
						CHANNELS 3 Xrotation Yrotation Zrotation
						JOINT newVegas:RightForeArm
						{
							OFFSET -29.960503 0.000000 0.000000
							CHANNELS 3 Xrotation Yrotation Zrotation
							JOINT newVegas:RightHand
							{
								OFFSET -27.849251 0.000000 0.000000
								CHANNELS 3 Xrotation Yrotation Zrotation
								JOINT newVegas:RightHandThumb1
								{
									OFFSET -4.487587 -3.305161 6.305391
									CHANNELS 3 Xrotation Yrotation Zrotation
									JOINT newVegas:RightHandThumb2
									{
										OFFSET -5.480453 -3.164139 3.164143
										CHANNELS 3 Xrotation Yrotation Zrotation
										JOINT newVegas:RightHandThumb3
										{
											OFFSET -5.159721 -2.978973 2.978967
											CHANNELS 3 Xrotation Yrotation Zrotation
											End Site
											{
												OFFSET -2.494507 5.926697 1.738678
											}
										}
									}
								}
								JOINT newVegas:RightHandIndex1
								{
									OFFSET -18.578728 -0.527832 5.208049
									CHANNELS 3 Xrotation Yrotation Zrotation
									JOINT newVegas:RightHandIndex2
									{
										OFFSET -3.192009 0.000000 0.000000
										CHANNELS 3 Xrotation Yrotation Zrotation
										JOINT newVegas:RightHandIndex3
										{
											OFFSET -3.835129 0.000000 0.000000
											CHANNELS 3 Xrotation Yrotation Zrotation
											End Site
											{
												OFFSET 0.034599 3.816971 0.371180
											}
										}
									}
								}
								JOINT newVegas:RightHandMiddle1
								{
									OFFSET -18.476105 0.000000 0.000000
									CHANNELS 3 Xrotation Yrotation Zrotation
									JOINT newVegas:RightHandMiddle2
									{
										OFFSET -3.324875 0.000000 0.000000
										CHANNELS 3 Xrotation Yrotation Zrotation
										JOINT newVegas:RightHandMiddle3
										{
											OFFSET -4.596550 0.000000 0.000000
											CHANNELS 3 Xrotation Yrotation Zrotation
											End Site
											{
												OFFSET -0.057701 4.578827 0.399218
											}
										}
									}
								}
								JOINT newVegas:RightHandRing1
								{
									OFFSET -17.732719 0.121887 -4.201567
									CHANNELS 3 Xrotation Yrotation Zrotation
									JOINT newVegas:RightHandRing2
									{
										OFFSET -2.733170 0.000000 0.000000
										CHANNELS 3 Xrotation Yrotation Zrotation
										JOINT newVegas:RightHandRing3
										{
											OFFSET -3.178268 0.000000 0.000000
											CHANNELS 3 Xrotation Yrotation Zrotation
											End Site
											{
												OFFSET -0.119102 3.170624 0.185394
											}
										}
									}
								}
								JOINT newVegas:RightHandPinky1
								{
									OFFSET -15.989624 -0.606689 -7.535461
									CHANNELS 3 Xrotation Yrotation Zrotation
									JOINT newVegas:RightHandPinky2
									{
										OFFSET -2.538986 0.000000 0.000000
										CHANNELS 3 Xrotation Yrotation Zrotation
										JOINT newVegas:RightHandPinky3
										{
											OFFSET -2.593102 0.000000 0.000000
											CHANNELS 3 Xrotation Yrotation Zrotation
											End Site
											{
												OFFSET 0.150902 2.584198 0.152708
											}
										}
									}
								}
							}
							JOINT newVegas:Right_CapeC
							{
								OFFSET -15.715958 -8.608795 -6.935905
								CHANNELS 3 Xrotation Yrotation Zrotation
								JOINT newVegas:Right_CapeC1
								{
									OFFSET 0.000000 -8.688499 0.000000
									CHANNELS 3 Xrotation Yrotation Zrotation
									End Site
									{
										OFFSET 0.000000 8.688499 0.000000
									}
								}
							}
							JOINT newVegas:Right_Sleeve
							{
								OFFSET -0.267448 -0.649994 0.577675
								CHANNELS 3 Xrotation Yrotation Zrotation
								End Site
								{
									OFFSET 0.000000 15.991302 0.000000
								}
							}
						}
						JOINT newVegas:Right_CapeA
						{
							OFFSET -5.115540 -8.608795 -10.395824
							CHANNELS 3 Xrotation Yrotation Zrotation
							JOINT newVegas:Right_CapeA1
							{
								OFFSET 0.000000 -8.688499 0.000000
								CHANNELS 3 Xrotation Yrotation Zrotation
								End Site
								{
									OFFSET 0.000000 8.688499 0.000000
								}
							}
						}
						JOINT newVegas:Right_CapeB
						{
							OFFSET -26.118187 -8.608795 -7.079266
							CHANNELS 3 Xrotation Yrotation Zrotation
							JOINT newVegas:Right_CapeB1
							{
								OFFSET 0.000000 -8.688499 0.000000
								CHANNELS 3 Xrotation Yrotation Zrotation
								End Site
								{
									OFFSET 0.000000 8.688499 0.000000
								}
							}
						}
					}
				}
				JOINT newVegas:Left_Collar
				{
					OFFSET 18.625099 8.655502 8.828100
					CHANNELS 3 Xrotation Yrotation Zrotation
					JOINT newVegas:Left_Collar1
					{
						OFFSET 14.783401 10.540405 -1.259500
						CHANNELS 3 Xrotation Yrotation Zrotation
						End Site
						{
							OFFSET 0.000000 18.199875 0.000000
						}
					}
				}
				JOINT newVegas:Collar_Back
				{
					OFFSET 0.000000 15.630707 -20.132601
					CHANNELS 3 Xrotation Yrotation Zrotation
					End Site
					{
						OFFSET 0.000000 22.523010 0.000000
					}
				}
				JOINT newVegas:Left_Peck
				{
					OFFSET 17.239599 -5.132599 25.482599
					CHANNELS 3 Xrotation Yrotation Zrotation
					End Site
					{
						OFFSET 0.000000 22.523010 0.000000
					}
				}
				JOINT newVegas:Right_Peck
				{
					OFFSET -17.239599 -5.132202 25.482599
					CHANNELS 3 Xrotation Yrotation Zrotation
					End Site
					{
						OFFSET 0.000000 22.523010 0.000000
					}
				}
				JOINT newVegas:Right_Collar
				{
					OFFSET -18.625099 8.655792 8.828100
					CHANNELS 3 Xrotation Yrotation Zrotation
					JOINT newVegas:Right_Collar1
					{
						OFFSET -14.783401 10.539993 -1.259500
						CHANNELS 3 Xrotation Yrotation Zrotation
						End Site
						{
							OFFSET 0.000000 18.199631 0.000000
						}
					}
				}
			}
		}
		JOINT newVegas:Belly
		{
			OFFSET 0.000000 -6.540398 9.014299
			CHANNELS 3 Xrotation Yrotation Zrotation
			End Site
			{
				OFFSET 0.000000 11.566666 0.000000
			}
		}
	}
	JOINT newVegas:ElvisFacialAnim_Joint
	{
		OFFSET 1.000000 -95.330101 -8.825800
		CHANNELS 3 Xrotation Yrotation Zrotation
		End Site
		{
			OFFSET 0.000000 35.315800 0.000000
		}
	}
}
MOTION
Frames: 4
Frame Time: 0.033333
2.090438 42.418270 -0.938133 -115.208120 5.505329 3.146574 -0.000002 0.000000 0.000000 -71.140190 -10.126557 55.841113 27.641555 -3.954607 3.438414 40.193928 -0.147628 -1.573091 0.000002 -0.000000 -0.000000 -0.000001 -0.000001 -0.000002 -47.662378 -2.761147 -53.148383 15.606928 -9.543203 -5.081500 -12.529699 -20.090735 17.642216 0.000000 0.000000 0.000000 -0.000001 -0.000003 -0.000003 53.794058 -8.048383 -1.573032 14.452306 -2.540451 2.905001 14.513773 -1.532700 3.001469 3.234619 0.033263 0.540954 3.234615 0.033259 0.540954 -0.000000 0.000000 0.000000 3.234659 0.033259 0.540953 3.234582 0.033262 0.540953 0.000001 0.000000 -0.000001 -0.000000 0.000000 0.000001 5.816775 -2.815284 -0.615030 36.106340 6.688034 -105.633431 -0.000002 -34.433193 -0.000011 19.018305 20.661799 91.424896 -12.207865 -9.611543 20.426714 5.987342 12.646048 1.346587 0.000003 -0.000003 0.000000 0.244419 3.013434 -8.368005 0.000003 0.004694 -0.045801 -0.000001 -0.000000 -0.000000 0.099879 3.029936 -8.213952 0.000001 0.000001 -0.000001 0.000000 -0.000001 0.000000 0.087587 2.910544 -6.976608 0.000006 0.006803 -0.066403 0.000000 -0.000001 0.000000 0.049126 2.752112 -5.304216 0.000000 0.000002 -0.000004 -0.000000 0.000003 0.000000 -0.000000 0.000001 0.000000 -0.000000 0.000001 0.000000 -0.000000 0.000001 0.000000 -0.000000 0.000000 0.000001 -0.000000 0.000000 0.000001 -0.000000 0.000000 0.000001 -0.000000 -0.000000 0.000001 0.566123 -0.020109 -1.614856 30.312151 -9.214752 94.146262 0.000006 41.605933 -0.000005 40.690237 -35.450461 -75.217424 -11.630429 11.625084 -20.750866 6.358339 -14.447510 -2.112214 0.000002 -0.000003 -0.000001 0.083669 -2.857255 7.080641 0.000000 -0.000002 0.000005 0.000000 -0.000001 -0.000001 0.082279 -2.845913 6.940233 0.000002 -0.004823 0.059162 0.000000 0.000001 0.000000 0.080024 -2.827109 6.707583 0.000001 0.000006 0.000004 -0.000001 -0.000001 0.000000 0.061454 -2.635368 4.341912 0.000004 -0.004019 0.049523 0.000001 -0.000000 0.000000 0.000001 0.000000 -0.000001 0.000000 -0.000002 -0.000000 0.000001 -0.000000 -0.000001 -0.000000 0.000000 -0.000001 -0.000000 -0.000001 -0.000001 -0.000000 0.000000 -0.000001 -0.000000 -0.000001 -0.000001 -0.000000 0.000000 -0.000001 -0.000000 0.000000 -0.000001 -0.000000 0.000000 -0.000001 -0.000000 0.000000 -0.000001 -0.000000 0.000000 -0.000001 -0.000000 0.000000 -0.000001 -0.000000 0.000000 -0.000001 0.000002 -0.000000 0.000000 -0.000002 0.000000 0.000000 
4.735278 42.710743 -2.882614 -116.261103 -6.768272 5.586536 0.000001 -0.000000 -0.000000 -77.658998 -14.363367 48.775819 40.932938 -4.040781 0.230604 30.734345 -2.143784 -5.728353 -0.000000 -0.000000 0.000001 -0.000000 0.000000 0.000001 -43.780034 -8.167326 -47.160325 23.159898 -9.657508 -10.350127 -9.328984 -14.908281 17.617933 -0.000001 0.000003 -0.000003 0.000004 0.000001 -0.000000 57.155484 -6.202962 -6.780862 13.977231 -1.042073 2.337574 13.973038 -0.013524 2.266145 3.062221 -0.219125 1.021816 3.062216 -0.219126 1.021818 -0.000001 -0.000000 -0.000001 3.062290 -0.219134 1.021819 3.062199 -0.219120 1.021814 0.000002 -0.000000 0.000000 -0.000001 -0.000000 -0.000001 5.581010 -8.138859 -2.198517 42.687941 16.607537 -111.865904 -0.000001 -41.127762 -0.000003 40.478423 20.130367 75.504606 -33.410758 -6.434620 5.277818 6.412345 15.744216 1.501602 0.000001 -0.000000 -0.000003 0.039522 2.418558 -8.329523 0.004331 0.225431 -2.200397 -0.000000 -0.000002 -0.000001 -0.006776 2.290540 -8.244383 0.002904 0.184672 -1.802370 0.000000 -0.000000 -0.000000 -0.006152 2.255940 -7.903547 0.001892 0.149008 -1.454275 -0.000000 -0.000001 -0.000001 -0.178557 2.278437 -8.018322 0.000956 0.105835 -1.032876 -0.000000 -0.000002 0.000001 -0.000001 -0.000001 -0.000000 -0.000001 -0.000001 -0.000000 -0.000001 -0.000001 0.000000 -0.000001 0.000001 -0.000000 -0.000001 0.000001 -0.000000 -0.000001 0.000001 -0.000000 -0.000001 0.000002 -0.000000 3.388885 -1.278123 -0.481258 26.292878 -15.953508 92.759652 -0.000003 43.482695 0.000017 43.989386 -35.515064 -75.434037 -11.612963 11.699580 -20.742480 6.424468 -14.730870 -2.146089 0.000003 0.000000 -0.000000 0.079940 -2.826173 6.656979 0.000890 -0.091120 1.118639 0.000000 0.000002 -0.000000 0.078806 -2.816666 6.540356 0.000828 -0.087889 1.078942 0.000000 0.000001 -0.000001 0.076485 -2.796151 6.284459 0.000890 -0.091097 1.118229 -0.000000 -0.000003 -0.000001 0.058642 -2.596183 3.811741 0.001200 -0.105899 1.300210 -0.000000 0.000003 0.000001 0.000001 0.000002 -0.000000 0.000002 -0.000000 -0.000000 0.000001 0.000002 0.000001 0.000001 0.000001 -0.000001 0.000001 0.000001 -0.000001 0.000001 0.000001 -0.000001 0.000001 0.000001 -0.000001 -0.000000 -0.000000 0.000001 -0.000000 -0.000000 0.000001 -0.000000 -0.000000 0.000001 -0.000000 -0.000000 0.000001 -0.000000 -0.000000 0.000001 -0.000000 -0.000000 0.000001 -0.000000 -0.000000 0.000001 -0.000002 -0.000000 0.000001 0.000001 -0.000000 -0.000000 
6.549940 41.825623 -6.098091 -113.547264 -18.438526 7.693386 -0.000002 0.000000 -0.000000 -81.779747 -14.519995 37.677919 46.061740 -2.067683 0.310675 22.612461 -1.223773 -5.079577 0.000003 0.000001 0.000001 0.000003 -0.000001 -0.000000 -42.134276 -11.793783 -41.475217 34.953951 -5.292600 -12.219110 -8.530806 1.573260 9.286338 0.000002 -0.000001 -0.000000 -0.000001 0.000001 0.000000 59.737716 -4.435574 -9.372111 13.065133 0.371732 1.739167 13.025129 1.362240 1.499889 2.993953 -0.445640 1.231329 2.993951 -0.445642 1.231330 -0.000002 -0.000000 -0.000001 2.994000 -0.445648 1.231328 2.993981 -0.445653 1.231329 -0.000000 -0.000000 -0.000001 -0.000002 -0.000000 -0.000000 4.421595 -15.777001 -3.871122 43.627058 17.188746 -113.365656 0.000003 -45.823739 -0.000001 40.284404 17.116413 55.856215 -28.512167 -7.532558 6.070413 6.968722 18.414031 1.687351 0.000001 -0.000001 -0.000001 0.039784 1.847448 -2.249497 0.005072 0.243981 -2.381549 0.000001 -0.000000 -0.000000 0.037821 1.544244 -1.712402 0.004862 0.238849 -2.331441 -0.000001 -0.000001 -0.000001 0.034990 1.558218 -1.901233 0.004218 0.222450 -2.171245 -0.000002 0.000001 0.000002 -0.259858 1.786695 -3.862754 0.003731 0.209228 -2.042242 -0.000001 0.000000 -0.000001 -0.000000 0.000001 -0.000001 -0.000000 0.000001 -0.000001 -0.000000 0.000001 -0.000001 -0.000001 0.000000 0.000000 -0.000001 0.000000 -0.000000 -0.000001 0.000000 0.000000 -0.000001 -0.000000 -0.000000 6.330232 -4.207005 1.137411 18.632777 -19.973852 88.519702 0.000013 42.708483 -0.000034 43.653272 -35.271015 -78.488866 -11.390546 11.707291 -20.838586 6.384883 -14.514924 -2.125920 -0.000000 -0.000002 -0.000001 0.078858 -2.816547 6.499063 0.001792 -0.129331 1.587870 -0.000000 -0.000001 0.000000 0.077714 -2.807141 6.384685 0.001662 -0.124551 1.529085 0.000001 -0.000000 -0.000000 0.075593 -2.788092 6.144690 0.001775 -0.128693 1.580043 -0.000001 -0.000001 0.000000 0.058069 -2.587678 3.659825 0.002372 -0.148712 1.825940 -0.000000 -0.000002 -0.000001 -0.000000 0.000004 0.000001 -0.000002 0.000000 0.000002 -0.000000 0.000004 0.000001 -0.000003 -0.000001 -0.000000 -0.000003 -0.000001 -0.000001 -0.000003 -0.000001 -0.000000 -0.000003 -0.000001 -0.000001 -0.000000 -0.000000 0.000000 -0.000000 -0.000000 0.000000 -0.000000 -0.000000 0.000000 -0.000000 -0.000000 0.000000 -0.000000 -0.000000 0.000000 -0.000000 -0.000000 0.000000 -0.000000 -0.000000 0.000000 -0.000000 -0.000001 0.000000 -0.000002 0.000000 -0.000000 
8.197432 41.244961 -10.202095 -105.435199 -29.011905 10.938582 -0.000000 0.000000 -0.000002 -82.512524 -14.104120 27.473744 40.426732 1.603757 3.369650 26.409780 -0.728173 -4.168196 -0.000000 -0.000000 0.000001 -0.000000 0.000001 -0.000000 -40.804643 -13.676187 -36.751438 50.262710 -6.683093 -9.511937 -11.020285 9.044613 2.319215 0.000000 0.000001 0.000000 0.000000 -0.000001 -0.000000 60.360123 -3.364928 -9.631156 11.913862 1.429885 1.462249 11.871162 2.431603 1.076428 2.984963 -0.626509 1.129540 2.984972 -0.626508 1.129532 -0.000001 0.000000 -0.000001 2.985003 -0.626506 1.129527 2.984984 -0.626516 1.129536 0.000001 -0.000001 -0.000001 -0.000001 0.000000 -0.000001 1.706196 -23.670768 -8.238219 47.739764 31.938938 -110.120435 0.000001 -70.365251 -0.000006 21.758654 17.938947 27.300736 -11.331982 -8.221694 11.536145 7.220616 18.661704 1.727674 0.000003 -0.000002 -0.000003 0.152191 3.033066 -17.391712 0.032806 0.619764 -6.059390 -0.000001 0.000001 -0.000004 -0.018236 3.077162 -18.647376 0.040996 0.692655 -6.775318 0.000003 -0.000001 -0.000001 -0.008175 3.183879 -19.842318 0.047772 0.747450 -7.314123 0.000001 -0.000000 -0.000003 -0.080148 3.543908 -20.522780 0.056695 0.813950 -7.968981 0.000000 -0.000005 -0.000001 -0.000000 0.000004 -0.000001 -0.000000 0.000004 -0.000001 -0.000000 0.000004 -0.000001 -0.000001 -0.000001 -0.000001 -0.000000 0.000000 -0.000001 -0.000001 -0.000001 -0.000001 -0.000002 -0.000001 -0.000000 8.516826 -5.730908 3.513028 8.268714 -22.062604 80.526892 0.000022 40.727957 -0.000033 40.291525 -35.107224 -83.850899 -11.468358 11.592620 -20.830079 6.229281 -13.976382 -2.048818 0.000001 -0.000000 -0.000000 0.077640 -2.805489 6.323460 0.002702 -0.158768 1.949317 0.000000 0.000000 -0.000000 0.076474 -2.796148 6.210793 0.002508 -0.152941 1.877811 0.000000 -0.000001 0.000000 0.074304 -2.776220 5.957676 0.002702 -0.158786 1.949609 0.000000 0.000002 -0.000000 0.056955 -2.570372 3.399317 0.003644 -0.184343 2.263608 0.000000 0.000002 0.000000 -0.000001 0.000000 -0.000001 0.000000 -0.000002 -0.000000 -0.000001 0.000000 -0.000001 0.000001 0.000001 0.000001 0.000000 0.000001 -0.000001 0.000001 0.000001 0.000001 0.000000 0.000001 -0.000001 0.000001 0.000000 -0.000002 0.000001 0.000000 -0.000002 0.000001 0.000000 -0.000002 0.000001 0.000000 -0.000002 0.000001 0.000000 -0.000002 0.000001 0.000000 -0.000002 0.000001 0.000000 -0.000002 -0.000001 0.000000 -0.000001 -0.000000 0.000000 -0.000002 
